<?xml version="1.0" encoding="UTF-8" standalone="no"?>
<svg
   viewBox="0 0 512 512"
   version="1.1"
   id="svg2"
   sodipodi:docname="4-d.svg"
   inkscape:version="1.3 (0e150ed6c4, 2023-07-21)"
   xmlns:inkscape="http://www.inkscape.org/namespaces/inkscape"
   xmlns:sodipodi="http://sodipodi.sourceforge.net/DTD/sodipodi-0.dtd"
   xmlns="http://www.w3.org/2000/svg"
   xmlns:svg="http://www.w3.org/2000/svg">
  <defs
     id="defs2" />
  <sodipodi:namedview
     id="namedview2"
     pagecolor="#ffffff"
     bordercolor="#cccccc"
     borderopacity="1"
     inkscape:showpageshadow="0"
     inkscape:pageopacity="1"
     inkscape:pagecheckerboard="0"
     inkscape:deskcolor="#d1d1d1"
     inkscape:zoom="1.5"
     inkscape:cx="256"
     inkscape:cy="255.66667"
     inkscape:window-width="1920"
     inkscape:window-height="1027"
     inkscape:window-x="-8"
     inkscape:window-y="-8"
     inkscape:window-maximized="1"
     inkscape:current-layer="svg2" />
  <path
     d="M0 0h512v512H0z"
     id="path1"
     style="fill:#564787;fill-opacity:1" />
  <path
     fill="#fff"
     d="M119.436 36c-16.126 0-29.2 17.237-29.2 38.5v363c0 21.263 13.074 38.5 29.2 38.5h275.298c16.126 0 29.198-17.237 29.198-38.5v-363c0-21.263-13.072-38.5-29.198-38.5H119.436zm26.882 3.717h.002l47.393 58.27-47.393 58.286-47.375-58.287 47.373-58.27zm124.436 139.908h7.726v112.453h27.34v10.104h-27.34v25.32c0 2.219.872 4.002 2.616 5.35 2.536 1.822 5.468 2.734 8.797 2.734h10.103v8.914h-65.975v-8.914h12.245c4.12 0 7.133-.872 9.035-2.615 1.981-1.744 2.97-4.28 2.97-7.608v-23.181h-67.28v-11.41l79.763-111.147zM258.27 211.84l-57.414 80.238h57.414V211.84zm107.39 140.683h.001l47.393 58.27-47.393 58.287-47.375-58.287 47.373-58.27z"
     id="path2" />
</svg>
